<svg width="25" height="25" viewBox="0 0 25 25" fill="none" xmlns="http://www.w3.org/2000/svg">
<path d="M22.2227 4.60146C22.1986 4.51705 22.1463 4.44346 22.0745 4.39298C22.0027 4.3425 21.9158 4.31819 21.8282 4.32412C12.4038 4.6 5.9154 10.7532 4.98449 18.9024C4.98126 18.9749 4.99801 19.0469 5.03291 19.1105C5.0678 19.1741 5.1195 19.227 5.18237 19.2632C5.24524 19.2995 5.31686 19.3178 5.38941 19.3161C5.46197 19.3144 5.53267 19.2929 5.59381 19.2538L14.3438 13.3749C12.4132 16.3365 9.85718 18.8392 6.85552 20.7069C5.51984 21.5229 4.09522 22.1835 2.60942 22.6757C2.51255 22.7095 2.43287 22.7801 2.38757 22.8722C2.34227 22.9643 2.33499 23.0705 2.36729 23.1679C2.39959 23.2653 2.46888 23.3461 2.56022 23.3928C2.65157 23.4396 2.75763 23.4486 2.85554 23.4179C4.33049 22.9272 5.74768 22.2776 7.08208 21.4804C10.7657 23.4296 14.7501 21.8476 14.9219 21.7772C25.8438 17.2616 22.2618 4.72646 22.2227 4.60146Z" fill="#1FCF6A"/>
<path d="M4.76175 16.035C5.71789 12.6286 7.7146 9.60627 10.4727 7.39042C10.0418 4.95722 8.35777 2.27401 6.07422 1.58183C6.01033 1.5611 5.94213 1.5574 5.87637 1.5711C5.81061 1.58481 5.74956 1.61543 5.69926 1.65995C3.00229 4.00516 -0.175003 10.5462 4.76175 16.035Z" fill="#1FCF6A"/>
</svg>
